<svg version="1.1" xmlns="http://www.w3.org/2000/svg" xmlns:xlink="http://www.w3.org/1999/xlink" x="0px" y="0px"
	 width="400px" height="400px" viewBox="0 0 400 400" enable-background="new 0 0 400 400" xml:space="preserve">
<g>
	<g>
		<g>
			<path fill="#15406E" d="M179.258,270.948c-7.151,6.479-15.596,10.044-27.458,10.044c-15.175,0-24.109-5.795-30.822-13.393
				c-11.841-13.402-11.604-36.402-11.604-67.659c0-31.271-0.237-54.719,11.604-68.105c6.712-7.592,15.647-13.407,30.822-13.407
				c12.049,0,20.544,3.585,27.685,10.282c7.804,7.354,12.305,19.434,12.738,33.5h-25.015c-0.228-5.815-1.114-11.396-3.784-15.398
				c-2.253-3.582-5.602-5.831-11.624-5.831c-6.027,0-9.613,2.467-11.833,6.033c-4.695,7.593-5.587,23.664-5.587,52.702
				c0,29.023,0.892,45.12,5.587,52.687c2.22,3.586,5.805,6.042,11.833,6.042c6.022,0,9.608-2.248,11.862-5.804
				c2.654-4.021,3.546-9.836,3.769-15.63h25.01C191.997,251.295,187.29,263.578,179.258,270.948z"/>
		</g>
		<g>
			<path fill="#15406E" d="M230.797,121.049l20.751,65.197h14.055v-65.197h25.021v158.992h-40.185
				c-29.043,0-40.643-14.084-40.643-46.912c0-19.652,4.023-33.718,18.523-41.529l-23.663-70.551H230.797z M250.212,257.477h15.391
				v-48.68h-15.391c-13.402,0-15.414,11.168-15.414,24.332C234.798,246.303,236.81,257.477,250.212,257.477z"/>
		</g>
	</g>
	<path opacity="0.8" fill="#15406E" d="M367.74,136.357c-1.011-2.659-2.2-5.225-3.328-7.825l-10.124,23.036l-23.921-6.355
		c0.634,1.512,1.337,2.992,1.92,4.547c27.549,72.919-9.359,154.649-82.303,182.186c-16.086,6.082-32.878,9.174-49.903,9.174h-0.022
		c-45.247,0-87.231-22.09-113.53-57.412l-25.61-5.21l-8.435,22.743c32.979,47.695,88.094,77.759,147.575,77.759c0,0,0,0,0.022,0
		c21.604,0,42.918-3.903,63.316-11.61C355.833,332.462,402.657,228.831,367.74,136.357z"/>
	<path opacity="0.5" fill="#15406E" d="M69.734,254.228c-0.645-1.526-1.342-3.012-1.923-4.577
		c-13.357-35.323-12.149-73.717,3.394-108.122c15.551-34.417,43.579-60.722,78.897-74.053c16.096-6.093,32.896-9.159,49.929-9.159
		c45.247,0,87.248,22.075,113.525,57.397l25.638,5.215l8.418-22.743c-32.983-47.7-88.109-77.777-147.581-77.777
		c-21.625,0-42.916,3.923-63.322,11.613c-44.792,16.91-80.313,50.271-100.025,93.899c-19.717,43.643-21.247,92.339-4.319,137.131
		c0.996,2.664,2.17,5.23,3.299,7.826l10.103-23.011L69.734,254.228z"/>
</g>
</svg>
