<svg viewBox="-40.988 -41.056 594.338 594.294" width="594.338" height="594.294" xml:space="preserve" version="1.1" xmlns="http://www.w3.org/2000/svg" xmlns:xlink="http://www.w3.org/1999/xlink">
  <g>
    <path d="M133.821 81.354c89.114-62.398 209.33-47.245 280.515 31.33L399.4 155.086l.075-.24-49.679-.148c-47.055-43.55-119.658-50.024-174.316-11.752-60.54 42.391-77.026 124.249-39.032 186.465l-41.4-.035L77.799 373.4C14.637 277.3 38.989 147.757 133.82 81.354z" fill="#8ba0b7" fill-opacity=".55"/>
    <path d="M334.901 370.624c61-42.712 77.273-125.488 38.162-187.872l45.608-1.11 15.672-43.175c63.426 96.135 39.127 225.891-55.812 292.368-89.064 62.364-209.197 47.262-280.397-31.2l15.526-43.055-.25-.012 45.231.47c46.98 45.195 120.844 52.388 176.26 13.586z" fill="#44668b"/>
  </g>
</svg>
