<svg viewBox="0 0 512 512" width="657.53" height="657.482" xml:space="preserve" version="1.1" xmlns="http://www.w3.org/2000/svg" xmlns:xlink="http://www.w3.org/1999/xlink">
  <g>
    <path d="M120.472 62.338C219.06-6.694 352.057 10.07 430.812 96.999l-16.526 46.91.083-.264-54.96-.165c-52.059-48.18-132.381-55.342-192.85-13-66.978 46.898-85.216 137.458-43.183 206.29l-45.802-.04-19.082 48.708c-69.877-106.321-42.937-249.637 61.98-323.1z" fill="#8ba0b7" fill-opacity=".55"/>
    <path d="M342.93 382.365c67.486-47.254 85.49-138.83 42.22-207.848l50.458-1.228 17.338-47.765c70.17 106.357 43.287 249.91-61.746 323.454-98.534 68.994-231.44 52.286-310.21-34.517l17.176-47.633-.277-.013 50.041.519c51.976 50.001 133.693 57.959 195 15.03z" fill="#44668b"/>
  </g>
</svg>