<?xml version="1.0" standalone="no"?>
<!DOCTYPE svg PUBLIC "-//W3C//DTD SVG 20010904//EN"
 "http://www.w3.org/TR/2001/REC-SVG-20010904/DTD/svg10.dtd">
<svg version="1.0" xmlns="http://www.w3.org/2000/svg"
 width="260.000000pt" height="260.000000pt" viewBox="0 0 260.000000 260.000000"
 preserveAspectRatio="xMidYMid meet">
<metadata>
Created by potrace 1.11, written by Peter Selinger 2001-2013
</metadata>
<g transform="translate(0.000000,260.000000) scale(0.100000,-0.100000)"
fill="#000000" stroke="none">
<path d="M1228 2465 c-2 -1 -28 -5 -58 -8 -126 -14 -256 -51 -372 -107 -352
-170 -598 -510 -654 -905 -9 -66 -10 -230 -2 -279 4 -21 10 -55 13 -76 5 -31
18 -81 52 -194 3 -10 14 -35 23 -55 l18 -35 16 38 c9 21 16 44 16 50 0 7 4 16
8 22 4 5 19 42 32 81 26 77 33 83 85 63 14 -5 36 -12 48 -14 12 -3 45 -12 72
-20 28 -9 53 -16 57 -16 4 0 0 19 -8 43 -27 75 -43 194 -39 285 23 485 497
826 965 695 129 -36 279 -127 353 -213 31 -36 37 -39 102 -45 39 -4 96 -10
127 -14 l58 -8 29 71 c16 39 39 94 50 122 l20 52 -36 43 c-190 228 -461 377
-753 414 -55 7 -217 14 -222 10z"/>
<path d="M2351 1765 c-7 -16 -29 -70 -49 -120 -37 -90 -38 -90 -72 -89 -64 3
-175 14 -192 20 -25 8 -29 -10 -13 -57 22 -61 30 -131 29 -239 -6 -406 -331
-730 -749 -744 -36 -2 -64 2 -172 19 -119 19 -312 126 -387 216 -21 25 -47 36
-147 65 -67 19 -125 32 -129 27 -4 -4 -28 -66 -54 -137 -53 -145 -56 -120 29
-215 151 -166 338 -280 560 -339 114 -30 204 -40 330 -37 130 4 165 9 265 36
390 106 689 389 810 766 17 52 33 111 36 131 3 20 8 41 11 46 10 16 12 282 2
349 -10 72 -51 221 -74 272 -7 16 -15 37 -18 45 -3 10 -9 5 -16 -15z"/>
</g>
</svg>
