<svg version="1.1" xmlns="http://www.w3.org/2000/svg" xmlns:xlink="http://www.w3.org/1999/xlink" x="0px" y="0px"
	 width="800" height="600" viewBox="0 0 800 600" enable-background="new 0 0 800 600" xml:space="preserve" role="img">
<g>
	<g>
		<path d="M185.526,201.519c-19.224,0-36.526,15.379-36.526,34.603v146.103c0,19.225,15.379,34.604,36.526,34.604
			c19.224,0,36.525-15.379,36.525-34.604V236.122C222.051,216.898,204.75,201.519,185.526,201.519z M612.3,201.519
			c-19.224,0-36.525,15.379-36.525,34.603l0,0v146.103l0,0c0,19.225,15.379,34.604,36.525,34.604s36.525-15.379,36.525-34.604
			V236.122C648.825,216.898,633.446,201.519,612.3,201.519z M235.508,436.053c0,19.224,15.379,34.603,36.526,34.603h30.758v80.741
			c0,19.225,15.379,34.604,36.526,34.604c19.224,0,36.525-15.379,36.525-34.604v-80.741h49.982v80.741
			c0,19.225,15.38,34.604,36.526,34.604c19.224,0,36.525-15.379,36.525-34.604v-80.741h30.759c19.224,0,36.525-15.379,36.525-34.603
			V207.286H235.508V436.053z M562.317,195.751V178.45c0-3.845-1.923-9.612-1.923-13.457c-9.611-40.371-38.448-74.974-78.818-96.12
			l24.991-44.216c1.923-1.922,0-5.767-1.922-7.689c-1.923-1.922-5.768,0-7.69,1.922l-24.991,44.215
			c-21.146-9.612-46.138-13.457-71.129-13.457s-49.982,5.767-71.129,13.457L304.715,18.89c-1.922-1.922-5.767-3.845-7.689-1.922
			s-3.845,5.768-1.922,7.689l24.991,44.216c-38.448,19.224-67.284,51.905-76.896,90.353c-7.689,9.612-7.689,21.146-7.689,30.758
			c0,1.922,0,3.845,0,3.845h326.809V195.751z M473.887,109.243c7.689,0,15.379,5.768,15.379,15.379s-7.689,15.379-15.379,15.379
			s-15.379-5.768-15.379-15.379S464.274,109.243,473.887,109.243z M323.939,109.243c7.689,0,15.379,5.768,15.379,15.379
			s-7.69,15.379-15.379,15.379s-15.379-5.768-15.379-15.379S316.25,109.243,323.939,109.243z"/>
	</g>
</g>
</svg>
