<svg xmlns="http://www.w3.org/2000/svg" width="372.133" height="114.52" viewBox="0 0 372 115" role="img"><g fill="#2180c9"><path d="M306.652 13.902c0-7.643-6.253-13.898-13.895-13.898-7.646 0-13.898 6.255-13.898 13.898 0 15.287-12.508 27.795-27.796 27.795-7.643 0-13.898 6.254-13.898 13.898s6.255 13.898 13.898 13.898c17.789 0 27.796 15.009 27.796 30.019v1.111c0 7.644 6.252 13.897 13.898 13.897 7.642 0 13.895-6.253 13.895-13.897v-1.111c0-17.233-5.556-32.383-18.347-43.917 11.955-10.007 18.347-25.154 18.347-41.693M118.934 100.623c0 7.644 6.25 13.897 13.897 13.897 7.641 0 13.897-6.253 13.897-13.897V55.595c0-15.289 12.505-27.796 27.793-27.796 15.29 0 27.796 12.507 27.796 27.796v45.028c0 7.644 6.255 13.897 13.898 13.897 7.645 0 13.898-6.253 13.898-13.897V55.595c0-30.853-24.877-55.591-55.592-55.591-30.714 0-55.587 24.738-55.587 55.591v45.028M318.97 100.623c0 7.644 6.253 13.897 13.895 13.897 7.644 0 13.9-6.253 13.9-13.897V13.902c0-7.643-6.256-13.898-13.9-13.898-7.642 0-13.896 6.255-13.896 13.898v86.721M55.592 83.389c-15.287 0-27.796-12.508-27.796-27.794 0-15.289 12.509-27.796 27.796-27.796 15.286 0 27.794 12.507 27.794 27.796 0 15.286-12.508 27.794-27.794 27.794zm0-83.385C24.878.004 0 24.88 0 55.595c0 30.713 24.878 55.59 55.592 55.59 10.282 0 19.873-2.78 28.211-7.643 1.39 6.252 6.81 10.978 13.481 10.978 7.643 0 13.898-6.253 13.898-13.897V55.595c0-30.714-24.877-55.591-55.59-55.591M364.932 17.204c-3.972 0-7.203-3.23-7.203-7.202a7.21 7.21 0 017.203-7.203 7.21 7.21 0 017.203 7.203c0 3.971-3.231 7.202-7.203 7.202m0-12.941a5.746 5.746 0 00-5.739 5.739 5.745 5.745 0 005.739 5.739 5.745 5.745 0 005.739-5.74 5.745 5.745 0 00-5.739-5.738"/><path d="M364.533 9.413c.41 0 .699-.075.874-.226.18-.151.269-.402.269-.749 0-.342-.09-.59-.27-.736-.174-.149-.463-.224-.873-.224h-.818v1.935zm-.818 1.343v2.853h-1.942V6.072h2.968c.994 0 1.72.165 2.182.497.464.335.696.862.696 1.582 0 .498-.122.908-.364 1.227-.239.32-.6.555-1.086.708.267.059.506.198.714.413.212.212.424.535.641.97l1.055 2.14h-2.07l-.921-1.874c-.184-.375-.372-.635-.564-.771-.188-.14-.44-.208-.757-.208h-.552"/></g></svg>