<svg version="1.1" xmlns="http://www.w3.org/2000/svg" xmlns:xlink="http://www.w3.org/1999/xlink" x="0px" y="0px"
	 width="800" height="600" viewBox="0 0 800 600" enable-background="new 0 0 800 600" xml:space="preserve" role="img">
<g>
	<g>
		<path d="M497,103c40-46,32-94,32-94s-56,0-96,52c-36,46-26,84-26,84S453,153,497,103z M573,323c0-80,66-112,66-112s-34-60-118-60
			c-50,0-88,28-108,28c-24,0-60-26-106-26c-70,0-146,62-146,180c0,120,90,268,160,268c24,0,62-24,100-24s64,24,100,24
			c78,0,134-158,134-158S573,413,573,323z"/>
	</g>
</g>
</svg>
