<svg viewBox="0 0 228 56" xmlns="http://www.w3.org/2000/svg" role="img">
  <path d="M24.793 29.552C21.283 27.088 19 23.084 19 18.563c0-7.49 6.268-13.562 14-13.562s14 6.072 14 13.562c0 4.52-2.283 8.525-5.793 10.989v1.263c0 2.864-2.338 5.185-5.223 5.185h-5.969c-2.884 0-5.222-2.321-5.222-5.185v-1.263zM68 9h151v40H68V9zm21.52 25.76v-1.2c0-.36-.12-.655-.36-.885s-.54-.345-.9-.345h-2.52c-.8 0-1.2.41-1.2 1.23v.78c0 .8-.22 1.47-.66 2.01s-.95.81-1.53.81-1.095-.27-1.545-.81-.675-1.21-.675-2.01v-9.81c0-.8.225-1.475.675-2.025s.965-.825 1.545-.825c.56 0 1.04.27 1.44.81s.6 1.22.6 2.04v.33c0 .3.13.575.39.825s.56.375.9.375h2.52c.34 0 .635-.125.885-.375s.375-.525.375-.825v-.99c0-1.9-.685-3.52-2.055-4.86S84.37 17 82.41 17h-.27c-1.96 0-3.64.67-5.04 2.01S75 21.97 75 23.87v10.89c0 1.9.7 3.525 2.1 4.875s3.08 2.025 5.04 2.025h.27c1.96 0 3.635-.675 5.025-2.025 1.39-1.35 2.085-2.975 2.085-4.875zm16.52 5.34V18.56c0-.34-.12-.63-.36-.87s-.54-.36-.9-.36h-2.49c-.36 0-.66.125-.9.375s-.36.535-.36.855v8.13c0 .28-.15.42-.45.42h-3.21c-.26 0-.39-.14-.39-.42v-8.13c0-.34-.125-.63-.375-.87s-.545-.36-.885-.36H93.2c-.34 0-.635.12-.885.36s-.375.53-.375.87V40.1c0 .32.125.605.375.855s.545.375.885.375h2.52c.34 0 .635-.135.885-.405s.375-.545.375-.825v-7.95c0-.28.13-.42.39-.42h3.21c.3 0 .45.14.45.42v7.95c0 .28.12.555.36.825s.54.405.9.405h2.49c.36 0 .66-.125.9-.375s.36-.535.36-.855zm15.11 0v-2.16c0-.32-.13-.605-.39-.855s-.56-.375-.9-.375h-5.97c-.3 0-.45-.14-.45-.42V31.4c0-.28.15-.42.45-.42h4.29c.34 0 .64-.125.9-.375s.39-.535.39-.855v-1.98c0-.34-.13-.63-.39-.87s-.56-.36-.9-.36h-4.29c-.3 0-.45-.12-.45-.36v-3.96c0-.26.15-.39.45-.39h5.67c.34 0 .64-.125.9-.375s.39-.535.39-.855v-2.04c0-.34-.13-.63-.39-.87s-.56-.36-.9-.36h-9.84c-.38 0-.69.12-.93.36s-.36.53-.36.87V40.1c0 .32.13.605.39.855s.56.375.9.375h10.14c.34 0 .64-.125.9-.375s.39-.535.39-.855zm14.51-19.5v-2.04c0-.34-.13-.63-.39-.87s-.56-.36-.9-.36h-9.87c-.32 0-.615.12-.885.36s-.405.53-.405.87V40.1c0 .32.125.605.375.855s.555.375.915.375h2.43c.36 0 .66-.125.9-.375s.36-.535.36-.855v-8.7c0-.28.13-.42.39-.42h4.44c.36 0 .665-.125.915-.375s.375-.535.375-.855v-1.98c0-.34-.135-.63-.405-.87s-.565-.36-.885-.36h-4.38c-.3 0-.45-.12-.45-.36v-3.96c0-.26.15-.39.45-.39h5.73c.34 0 .64-.125.9-.375s.39-.535.39-.855zm16.07 14.52c0-1.72-.84-3.43-2.52-5.13-.6-.62-2.16-1.89-4.68-3.81-1.68-1.3-2.52-2.29-2.52-2.97 0-.56.195-1.06.585-1.5s.845-.66 1.365-.66c1.02 0 1.94.94 2.76 2.82.22.52.6.78 1.14.78.12 0 .25-.02.39-.06l1.68-.48c.72-.3 1.08-.7 1.08-1.2 0-.14-.02-.28-.06-.42-.52-1.62-1.35-2.92-2.49-3.9-1.26-1.06-2.76-1.59-4.5-1.59-1.82 0-3.35.53-4.59 1.59-1.36 1.14-2.04 2.68-2.04 4.62 0 1.6.81 3.2 2.43 4.8 1.52 1.22 3.04 2.45 4.56 3.69 1.62 1.34 2.43 2.48 2.43 3.42 0 1.4-.75 2.1-2.25 2.1-.9 0-1.61-.36-2.13-1.08-.08-.12-.39-.79-.93-2.01-.32-.74-.72-1.11-1.2-1.11-.14 0-.29.03-.45.09-.6.16-1.2.33-1.8.51-.84.32-1.26.75-1.26 1.29 0 .36.23 1.06.69 2.1 1.34 3.14 3.7 4.71 7.08 4.71 2.1 0 3.83-.595 5.19-1.785s2.04-2.795 2.04-4.815zm14.54-14.52v-2.04c0-.34-.13-.63-.39-.87s-.56-.36-.9-.36h-9.87c-.32 0-.615.12-.885.36s-.405.53-.405.87V40.1c0 .32.125.605.375.855s.555.375.915.375h2.43c.36 0 .66-.125.9-.375s.36-.535.36-.855v-8.7c0-.28.13-.42.39-.42h4.44c.36 0 .665-.125.915-.375s.375-.535.375-.855v-1.98c0-.34-.135-.63-.405-.87s-.565-.36-.885-.36h-4.38c-.3 0-.45-.12-.45-.36v-3.96c0-.26.15-.39.45-.39h5.73c.34 0 .64-.125.9-.375s.39-.535.39-.855zm14.78 19.5v-2.16c0-.32-.13-.605-.39-.855s-.56-.375-.9-.375h-5.97c-.3 0-.45-.14-.45-.42V31.4c0-.28.15-.42.45-.42h4.29c.34 0 .64-.125.9-.375s.39-.535.39-.855v-1.98c0-.34-.13-.63-.39-.87s-.56-.36-.9-.36h-4.29c-.3 0-.45-.12-.45-.36v-3.96c0-.26.15-.39.45-.39h5.67c.34 0 .64-.125.9-.375s.39-.535.39-.855v-2.04c0-.34-.13-.63-.39-.87s-.56-.36-.9-.36h-9.84c-.38 0-.69.12-.93.36s-.36.53-.36.87V40.1c0 .32.13.605.39.855s.56.375.9.375h10.14c.34 0 .64-.125.9-.375s.39-.535.39-.855zm14.78 0v-2.16c0-.32-.13-.605-.39-.855s-.56-.375-.9-.375h-5.97c-.3 0-.45-.14-.45-.42V31.4c0-.28.15-.42.45-.42h4.29c.34 0 .64-.125.9-.375s.39-.535.39-.855v-1.98c0-.34-.13-.63-.39-.87s-.56-.36-.9-.36h-4.29c-.3 0-.45-.12-.45-.36v-3.96c0-.26.15-.39.45-.39h5.67c.34 0 .64-.125.9-.375s.39-.535.39-.855v-2.04c0-.34-.13-.63-.39-.87s-.56-.36-.9-.36h-9.84c-.38 0-.69.12-.93.36s-.36.53-.36.87V40.1c0 .32.13.605.39.855s.56.375.9.375h10.14c.34 0 .64-.125.9-.375s.39-.535.39-.855zm16.4-5.64V24.2c0-1.9-.69-3.52-2.07-4.86s-3.06-2.01-5.04-2.01h-5.97c-.36 0-.66.12-.9.36s-.36.53-.36.87V40.1c0 .32.125.605.375.855s.545.375.885.375h5.97c1.98 0 3.66-.67 5.04-2.01s2.07-2.96 2.07-4.86zm-5.01-.33c0 .78-.29 1.445-.87 1.995s-1.28.825-2.1.825h-.9c-.3 0-.45-.14-.45-.42V22.16c0-.26.15-.39.45-.39h.9c.82 0 1.52.275 2.1.825s.87 1.215.87 1.995v9.54zM31.15 28.644h4.226l-2.113-3.152-2.113 3.152zm6.604-3.152c2.188 0 3.962-1.765 3.962-3.941s-1.774-3.94-3.962-3.94-3.962 1.764-3.962 3.94 1.774 3.94 3.962 3.94zm-8.981-1.051c1.313 0 2.377-1.059 2.377-2.365s-1.064-2.364-2.377-2.364-2.378 1.059-2.378 2.364 1.065 2.365 2.378 2.365zm10.964 24.028a1 1 0 01.413 1.107 3.916 3.916 0 01-.46 1.013c-.269.427-.606.68-1.011.758a1 1 0 01-.734-.143l-10.15-6.601c-1.378.77-2.494 1.386-3.346 1.846C13.904 41.63 9.129 35.813 10.129 29l29.609 19.47zm-2.362-4.439l-2.38-1.697 6.992-4.141a3.5 3.5 0 01-.188-1.194c.03-1.356.083-2.133 1.433-3 .805-.518 3.943-2.2 9.416-5.047a.37.37 0 01.481.127.34.34 0 01-.097.467l-7.735 5.132a.516.516 0 00-.226.32.43.43 0 00.06.327l.087.132c.062.096.16.163.278.188.13.027.27 0 .367-.064l7.974-4.622a.542.542 0 01.726.174.539.539 0 01-.138.732l-7.468 5.342a.516.516 0 00-.227.319.43.43 0 00.06.328l.087.131c.063.097.161.163.278.188.13.028.271 0 .382-.071l7.927-4.973a.296.296 0 01.406.09c.09.14.064.325-.064.433-4.731 4.018-7.506 6.29-8.325 6.816-1.242.798-1.85.551-3.05.18a3.49 3.49 0 01-1.126-.584l-5.93 3.967zm-7.153 4.786l-3.214 2.15a1 1 0 01-1.43-.346 37 37 0 01-.341-.63l-.31-.58a1 1 0 01.371-1.334l2.238-1.325 2.686 2.065z" fill="#ffff00" fill-rule="evenodd"/>
</svg>