<svg xmlns="http://www.w3.org/2000/svg" viewBox="0 0 150 150.2" role="img">
  <path d="M0 .2h150v150H0V.2z" fill="none"/>
  <path d="M54.1 98.3C47.5 92.1 43.7 83.6 43.7 74s3.9-18.1 10-24.3c5.4-5.4 5.4-13.9 0-19.3s-13.9-5.4-19.3 0C23.6 41.6 16.7 57 16.7 74s6.9 32.4 18.1 43.6c5.4 5.4 13.9 5.4 19.3 0 5-5.4 5-13.9 0-19.3z" fill="#fae501"/>
  <path d="M54.1 49.7c6.2-6.6 14.6-10.4 24.3-10.4s18.1 3.9 24.3 10c5.4 5.4 13.9 5.4 19.3 0s5.4-13.9 0-19.3c-11.2-10.8-26.6-17.7-43.6-17.7s-32.4 7-43.6 18.1c-5.4 5.4-5.4 13.9 0 19.3 5.4 5 13.9 5 19.3 0z" fill="#4fb5e1"/>
  <path d="M102.7 98.3c-6.2 6.6-14.6 10.4-24.3 10.4s-18.1-3.9-24.3-10c-5.4-5.4-13.9-5.4-19.3 0s-5.4 13.9 0 19.3c11.2 10.8 26.6 17.7 43.6 17.7s32.4-6.9 43.6-18.1c5.4-5.4 5.4-13.9 0-19.3-5.5-5-13.9-5-19.3 0z" fill="#f05751"/>
  <circle cx="44.5" cy="40.1" r="13.5" fill="#0681b6"/>
  <circle cx="44.5" cy="107.9" r="13.5" fill="#cd4739"/>
</svg>