<svg xmlns="http://www.w3.org/2000/svg" width="791.305" height="512" viewBox="0 0 362.716 512" role="img">
  <g>
    <path fill="#264de4" d="M181.145 512L33.011 470.877 0 100.62h362.734l-33.046 370.199z"/>
    <path fill="#2965f1" d="M301.397 447.246l28.24-316.352h-148.27v349.629z"/>
    <path fill="#ebebeb" d="M75.677 268.217l4.07 45.41h101.62v-45.41zM67.499 176.305l4.128 45.411h109.74v-45.411h-.157zM181.367 386.153l-.199.053-50.574-13.656-3.233-36.217H81.776l6.362 71.301 93.02 25.823.209-.058z"/>
    <path fill="#fff" d="M85.367 0h55v23h-32v23h32v23h-55zM151.367 0h55v20h-32v4h32v46h-55V49h32v-4h-32zM217.367 0h55v20h-32v4h32v46h-55V49h32v-4h-32z"/>
    <path fill="#fff" d="M286.766 268.217l8.198-91.912H181.21v45.411h63.988l-4.132 46.501H181.21v45.41h55.918l-5.271 58.894-50.647 13.67v47.244l93.094-25.801.683-7.672 10.671-119.551z"/>
  </g>
</svg>