<svg width="222" height="32" viewBox="0 0 222 32" fill="none" xmlns="http://www.w3.org/2000/svg" role="img">
<path fill-rule="evenodd" clip-rule="evenodd" d="M0.586167 0H7.2333C7.55703 0 7.81947 0.262436 7.81947 0.586167V30.6785C7.81947 31.0023 7.55703 31.2647 7.2333 31.2647H0.586167C0.262436 31.2647 0 31.0023 0 30.6785V0.586167C0 0.262436 0.262436 0 0.586167 0ZM10.2975 24.2703C10.2975 23.9465 10.5599 23.6841 10.8837 23.6841L11.5094 23.6929C16.6926 23.6929 20.9687 20.6609 20.9687 15.6433V15.5539C20.9687 10.5803 16.6926 7.54104 11.5094 7.54104H10.8441C10.5204 7.54104 10.2579 7.2786 10.2579 6.95487V0.61401C10.2579 0.290279 10.5204 0.0278431 10.8441 0.0278431H11.2324C22.4033 0.0278431 29.0285 6.42146 29.0285 15.3913V15.4807C29.0285 24.4505 23.9259 31.2017 12.6656 31.2017H10.8866C10.5629 31.2017 10.3004 30.9392 10.3004 30.6155L10.2975 24.2703ZM47.0091 1.4068L35.4118 30.6946C35.2777 31.0375 34.9476 31.2635 34.5795 31.2647H27.585C27.3885 31.2645 27.2052 31.1659 27.0967 31.002C26.9882 30.8382 26.9691 30.6309 27.0457 30.4499L39.6703 0.729779C39.811 0.398106 40.1365 0.182826 40.4968 0.183178H46.1738C46.9945 0.183178 47.3022 0.674093 47.0091 1.4068ZM44.9517 13.1023L48.3441 4.18523H48.3471C48.4317 3.96221 48.6431 3.81276 48.8816 3.80729C49.1201 3.80182 49.3381 3.94142 49.4329 4.16032L60.7167 30.4455C60.7946 30.6268 60.7761 30.8351 60.6675 30.9998C60.5589 31.1645 60.3747 31.2635 60.1774 31.2632H52.4532C52.0909 31.2632 51.7643 31.0452 51.6252 30.7108L49.8242 26.3775C49.6851 26.0431 49.3585 25.8251 48.9962 25.8251H40.806C40.6125 25.8252 40.4313 25.7297 40.322 25.57C40.2127 25.4102 40.1893 25.2068 40.2594 25.0264L42.3418 19.663C42.4756 19.3175 42.808 19.0898 43.1785 19.09H45.9335C46.2367 19.09 46.5193 18.9369 46.6849 18.6829C46.8505 18.429 46.8765 18.1086 46.7542 17.8312L44.9693 13.7837C44.874 13.5677 44.8676 13.3229 44.9517 13.1023ZM69.7026 0.181712H63.0525C62.7288 0.181712 62.4664 0.444148 62.4664 0.767879V30.6785C62.4664 31.0023 62.7288 31.2647 63.0525 31.2647H69.7026C70.0263 31.2647 70.2888 31.0023 70.2888 30.6785V0.767879C70.2888 0.444148 70.0263 0.181712 69.7026 0.181712ZM74.9781 0.181712H81.6194C81.7759 0.180147 81.9265 0.241212 82.0377 0.35131C82.1489 0.461408 82.2114 0.611397 82.2114 0.767879V30.6785C82.2114 31.0023 81.949 31.2647 81.6253 31.2647H74.9781C74.6544 31.2647 74.3919 31.0023 74.3919 30.6785V0.767879C74.3919 0.444148 74.6544 0.181712 74.9781 0.181712ZM94.7041 23.4936H85.0616C84.7379 23.4936 84.4755 23.756 84.4755 24.0797V30.6741C84.4755 30.9979 84.7379 31.2603 85.0616 31.2603H94.6997C95.0234 31.2603 95.2859 30.9979 95.2859 30.6741V24.0797C95.285 23.7572 95.0237 23.4958 94.7012 23.495L94.7041 23.4936ZM90.0294 0.162661H97.6921C98.0138 0.164993 98.3096 0.339459 98.4673 0.619871L109.007 19.3552C109.082 19.4894 109.122 19.6408 109.122 19.7949V30.6844C109.122 31.0081 108.86 31.2706 108.536 31.2706H101.107C100.783 31.2706 100.52 31.0081 100.52 30.6844V19.9531C100.52 19.7864 100.473 19.623 100.386 19.4813L89.2659 1.53283C89.0939 1.256 89.0856 0.907654 89.2443 0.622957C89.4029 0.338261 89.7035 0.162033 90.0294 0.162661ZM109.813 15.614C110.082 16.0654 110.504 16.0961 110.733 15.7723L119.625 1.49473C119.798 1.21821 119.808 0.869386 119.65 0.583919C119.491 0.298452 119.191 0.121403 118.864 0.12163H111.391C111.07 0.121634 110.774 0.292569 110.614 0.570048L106.189 8.21367C106.027 8.49226 106.027 8.8363 106.189 9.1149L109.813 15.614ZM135.271 0.121629H141.911C142.068 0.11967 142.219 0.180561 142.33 0.290702C142.442 0.400842 142.505 0.551058 142.505 0.707797V30.6184C142.505 30.9422 142.242 31.2046 141.918 31.2046H135.271C134.948 31.2046 134.685 30.9422 134.685 30.6184V0.707797C134.685 0.384065 134.948 0.121629 135.271 0.121629ZM145.214 20.3605L152.059 30.5686C152.311 30.9423 152.499 31.2031 153.108 31.2031H161.382C162.115 31.2031 162.386 30.5466 161.968 29.9531L151.134 14.6263C150.896 14.2933 150.913 13.8409 151.177 13.5273L161.181 1.59438C161.406 1.32737 161.455 0.954307 161.308 0.638051C161.16 0.321795 160.843 0.119767 160.494 0.120165H152.669C152.39 0.119798 152.127 0.249249 151.957 0.4704L145.424 8.98008C145.155 9.33022 145.009 9.75931 145.009 10.2008V19.449C144.991 19.766 145.062 20.0816 145.214 20.3605ZM161.129 21.1899C160.575 19.5285 160.29 17.7894 160.285 16.0383C160.29 14.2871 160.575 12.548 161.129 10.8866C162.125 7.93623 163.971 5.34597 166.435 3.4408C168.873 1.58697 171.767 0.426495 174.811 0.0820633C174.985 0.0619749 175.158 0.116964 175.288 0.233167C175.419 0.349369 175.493 0.515696 175.493 0.690212V2.85903V7.15124C175.493 7.75792 175.232 7.90593 174.848 8.01144C172.547 8.65926 170.622 10.2401 169.54 12.3711C168.968 13.5085 168.664 14.7616 168.651 16.0346C168.664 17.3076 168.968 18.5607 169.54 19.6981C170.622 21.8291 172.547 23.4099 174.848 24.0578C175.232 24.1633 175.493 24.3113 175.493 24.918V29.2175V31.3863C175.493 31.5608 175.419 31.7272 175.288 31.8434C175.158 31.9596 174.985 32.0146 174.811 31.9945C171.767 31.65 168.873 30.4896 166.435 28.6357C163.971 26.7306 162.125 24.1403 161.129 21.1899ZM160.285 16.0383L160.284 16.0068V16.0698L160.285 16.0383ZM193.533 16.0361C193.528 17.7884 193.244 19.5288 192.689 21.1914C191.692 24.1418 189.846 26.732 187.383 28.6372C184.944 30.491 182.05 31.6515 179.007 31.9959C178.834 32.016 178.66 31.9612 178.53 31.8453C178.4 31.7294 178.325 31.5635 178.325 31.3892V29.1691V24.9194C178.325 24.2908 178.586 24.1647 178.97 24.0592C181.271 23.4114 183.195 21.8306 184.278 19.6996C184.85 18.5622 185.154 17.3091 185.167 16.0361C185.154 14.7631 184.85 13.51 184.278 12.3725C183.195 10.2416 181.271 8.66073 178.97 8.0129C178.586 7.90739 178.325 7.78137 178.325 7.1527V2.90299V0.682885C178.325 0.508624 178.4 0.342694 178.53 0.226818C178.66 0.110941 178.834 0.0561429 179.007 0.0762017C182.05 0.420633 184.944 1.58111 187.383 3.43494C189.846 5.34011 191.692 7.93037 192.689 10.8807C193.244 12.5433 193.528 14.2837 193.533 16.0361ZM193.533 16.0361L193.533 16.0068V16.0654L193.533 16.0361ZM206.026 31.8172C202.225 31.486 198.306 30.151 195.128 27.4824L195.126 27.481C194.775 27.1815 194.708 26.6645 194.971 26.2852L198.063 21.8889C198.208 21.681 198.434 21.5444 198.686 21.5131C198.937 21.4818 199.19 21.5588 199.382 21.7248C201.51 23.5815 204.109 24.3025 206.174 24.7729C206.785 24.9121 206.974 25.2052 206.974 25.6639V30.9936C206.974 31.5607 206.677 31.8743 206.026 31.8172ZM209.605 12.1249C205.29 11.1533 204.216 10.5334 204.216 9.1193V9.03137C204.216 8.18289 205.019 7.56595 206.382 7.17908C206.913 7.03254 207.091 6.7248 207.091 6.29983V0.910025C207.092 0.657193 206.985 0.415974 206.798 0.245762C206.611 0.0755498 206.361 -0.00784182 206.11 0.0161196C199.619 0.643318 195.583 4.95751 195.583 9.82416V9.91209C195.583 16.2749 200.712 17.9851 207.332 19.4871C211.557 20.4587 212.587 21.313 212.587 22.5938V22.6817C212.587 23.7456 211.801 24.556 210.197 24.7099C209.512 24.7758 209.448 25.1495 209.448 25.5891V30.9306C209.448 31.5636 209.691 31.8948 210.513 31.8626C217.034 31.6017 221.294 27.9734 221.211 21.8377V21.7497C221.105 16.8289 216.754 13.668 209.603 12.1219L209.605 12.1249ZM216.977 8.85552L219.943 4.38746C220.213 3.97802 220.104 3.42774 219.698 3.15211C216.94 1.32732 213.753 0.253489 210.453 0.0366353C210.204 0.0183482 209.959 0.104196 209.776 0.273676C209.593 0.443155 209.488 0.681049 209.487 0.93054V6.18846C209.487 6.64714 209.678 7.02961 210.287 7.07943C211.973 7.21572 213.936 7.91326 215.745 9.11343C216.156 9.3813 216.707 9.26602 216.977 8.85552Z" fill="#E77600"/>
</svg>
