<svg version="1.1" id="ge-logo-black" xmlns="http://www.w3.org/2000/svg" x="0" y="0" viewBox="0 0 100 100" xml:space="preserve" role="img">
  <path d="M87.02 48.77c0 10-3.54 18.52-10.6 25.55-7.07 7.03-15.57 10.55-25.5 10.55s-18.43-3.52-25.5-10.55c-7.07-7.03-10.6-15.55-10.6-25.55 0-9.93 3.53-18.43 10.6-25.5s15.57-10.6 25.5-10.6 18.43 3.53 25.5 10.6c7.06 7.07 10.6 15.57 10.6 25.5zm-1.7 0c0-9.47-3.37-17.57-10.1-24.3-6.73-6.73-14.83-10.1-24.3-10.1s-17.57 3.35-24.3 10.05c-6.73 6.7-10.1 14.82-10.1 24.35 0 9.47 3.37 17.57 10.1 24.3 6.73 6.73 14.83 10.1 24.3 10.1 9.53 0 17.65-3.37 24.35-10.1 6.7-6.73 10.05-14.83 10.05-24.3zm-2.2 0c0 3.67-.53 7.1-1.6 10.3l-.3-.1c.8-2.8 1.2-5.37 1.2-7.7 0-2.13-.38-3.85-1.15-5.15-.77-1.3-1.75-1.95-2.95-1.95-1.6 0-2.4.83-2.4 2.5 0 .6.55 1.65 1.65 3.15 1.1 1.5 1.65 3.38 1.65 5.65 0 1.93-.43 4.33-1.3 7.2-1.8 5.93-5.33 10.53-10.6 13.8-4.8 3-10.27 4.5-16.4 4.5-4.47 0-7.87-.53-10.2-1.6l.1-.3c2 .8 4.57 1.2 7.7 1.2 2.13 0 3.83-.38 5.1-1.15 1.27-.77 1.9-1.72 1.9-2.85 0-1.67-.83-2.5-2.5-2.5-.67 0-1.73.57-3.2 1.7-1.47 1.13-3.3 1.7-5.5 1.7-2.07 0-4.5-.43-7.3-1.3-5.93-1.8-10.53-5.33-13.8-10.6-3-4.8-4.5-10.3-4.5-16.5 0-2.53.53-5.93 1.6-10.2l.3.1c-.8 2.4-1.2 4.97-1.2 7.7 0 4.67 1.37 7 4.1 7 1.6 0 2.4-.8 2.4-2.4 0-.67-.55-1.75-1.65-3.25-1.1-1.5-1.65-3.35-1.65-5.55 0-2.07.43-4.5 1.3-7.3 1.8-5.93 5.33-10.53 10.6-13.8 4.8-3 10.27-4.5 16.4-4.5 3.67 0 7.07.57 10.2 1.7l-.1.3c-1.73-.87-4.3-1.3-7.7-1.3-2.13 0-3.83.38-5.1 1.15-1.27.77-1.9 1.75-1.9 2.95 0 1.6.83 2.4 2.5 2.4.67 0 1.73-.55 3.2-1.65 1.46-1.1 3.3-1.65 5.5-1.65 2 0 4.43.43 7.3 1.3 5.93 1.8 10.53 5.37 13.8 10.7 3 4.74 4.5 10.17 4.5 16.3zm-12.1 9.61c0-2.2-.6-4.07-1.8-5.6-1.2-1.53-2.83-2.3-4.9-2.3-1.67 0-3.08.53-4.25 1.6s-1.75 2.37-1.75 3.9c0 1.27.33 2.33 1 3.2.67.87 1.5 1.3 2.5 1.3.93 0 1.4-.43 1.4-1.3 0-.4-.23-.9-.7-1.5s-.7-1.27-.7-2c.07-1.46.83-2.2 2.3-2.2 2.33 0 3.47 1.63 3.4 4.9 0 1.8-.57 3.27-1.7 4.4-1.13 1.13-2.53 1.7-4.2 1.7-2 0-3.65-.82-4.95-2.45-1.3-1.63-1.95-3.58-1.95-5.85 0-5.2 2.13-8.37 6.4-9.5.93.2 1.63.27 2.1.2 2.27 0 3.4-.57 3.4-1.7 0-1-.97-1.5-2.9-1.5-1.53 0-2.37.13-2.5.4-.67-.33-1.2-.97-1.6-1.9 4.67-3.53 7-6.7 7-9.5 0-2.27-1.17-3.4-3.5-3.4-2 0-3.7 1.03-5.1 3.1-1.4 2.07-2.1 4.33-2.1 6.8 0 1.07.07 1.83.2 2.3-1.87 1.33-4.5 3.03-7.9 5.1 0-1 .1-2 .3-3 1.87-2 2.8-3.57 2.8-4.7 0-.87-.4-1.3-1.2-1.3-1.93 0-3.23 1.7-3.9 5.1-1.33 1.67-2.73 2.5-4.2 2.5-.87 0-1.43-.5-1.7-1.5 2-.67 3.92-2.13 5.75-4.4 1.83-2.27 2.75-4.53 2.75-6.8 0-2.13-1.13-3.2-3.4-3.2-2.13 0-4.05 1.3-5.75 3.9-1.7 2.6-2.55 5.27-2.55 8-1.47 0-2.2-1-2.2-3 0-.53.08-1.15.25-1.85.17-.7.25-1.08.25-1.15 0-.6-.27-.9-.8-.9-1.67 0-2.47 1.43-2.4 4.3.07 3.33 1.73 5.13 5 5.4.53 2.47 1.93 3.7 4.2 3.7 1.67 0 3-.47 4-1.4-.07.47-.17 1.1-.3 1.9-2.93 1.53-4.87 2.57-5.8 3.1-1.87 1.13-3.43 2.27-4.7 3.4-2.4 2.2-3.6 4.57-3.6 7.1 0 1.6.5 2.97 1.5 4.1 1 1.13 2.43 1.7 4.3 1.7 4.6 0 7.87-2.93 9.8-8.8.6-1.8 1.03-4.83 1.3-9.1 3.33-1.87 6.4-3.8 9.2-5.8.33.53.67.93 1 1.2-4.73 2.47-7.1 6.3-7.1 11.5 0 2.87.87 5.33 2.6 7.4 1.93 2.4 4.53 3.6 7.8 3.6 2.73 0 5.02-.95 6.85-2.85 1.83-1.9 2.75-4.02 2.75-6.35zm-26.3-6.9c-.47 3.4-1.33 6.3-2.6 8.7-1.53 2.87-3.3 4.3-5.3 4.3-1.53 0-2.3-.87-2.3-2.6 0-3.6 3.4-7.07 10.2-10.4zm1.2-18.71c0 1.2-.57 2.63-1.7 4.3s-2.5 2.93-4.1 3.8c0-1.67.6-3.55 1.8-5.65 1.2-2.1 2.3-3.15 3.3-3.15.46.01.7.24.7.7zm17.7.4c0 1.47-1.53 3.53-4.6 6.2 0-1.93.45-3.63 1.35-5.1.9-1.47 1.75-2.2 2.55-2.2.46.01.7.37.7 1.1z" fill="#2060ad"/>
</svg>