<svg clip-rule="evenodd" fill-rule="evenodd" stroke-linejoin="round" stroke-miterlimit="1.414" viewBox="0 0 560 400" xmlns="http://www.w3.org/2000/svg" role="img">
  <g fill-rule="nonzero">
    <path d="M279.988 350C362.849 350 430 282.85 430 200.012S362.85 50 279.988 50C197.151 50 130 117.176 130 200.012S197.151 350 279.988 350" fill="#fff"/>
    <path d="M313.65 160.945c0-17.057 11.546-33.6 17.846-30.484 7.182 3.6-5.381 19.666-17.847 30.484m-78.52 6.214c0-13.714 13.53-39.771 21.796-37.016 9.771 3.257-8.094 29.54-21.796 37.016m-13.72 98.082c-6.221.282-10.384-3.698-10.384-10.34 0-17.848 24.765-34.899 43.47-44.052-3.32 24.918-11.738 53.43-33.087 54.392m114.258-58.157c-14.125 0-24.919 10.39-24.919 22.849 0 10.39 6.245 18.698 14.529 18.698 2.932 0 5.834-1.672 5.834-5.382 0-5.43-7.163-6.735-6.624-14.81.361-5.327 5.382-8.89 10.365-8.89 9.962 0 14.62 9.655 14.62 19.616-.403 15.386-11.73 26.07-25.003 26.07-17.462 0-28.678-16.604-28.678-34.476 0-26.608 17.461-36.992 26.608-39.471.086 0 23.89 4.23 23.15-6.263-.344-4.617-7.207-6.392-12.166-6.582-5.516-.214-11.088 1.77-11.088 1.77-2.89-1.47-4.898-4.342-6.14-7.648 17.038-12.894 29.087-25.347 29.087-39.477 0-7.476-4.996-14.125-14.553-14.125-17.039 0-29.92 21.606-29.92 41.137 0 3.312 0 6.649.857 9.551-10.813 7.886-18.851 12.802-33.38 21.527 0-1.819.38-6.515 1.604-12.588 4.978-5.406 11.817-13.506 11.817-19.745 0-2.902-1.647-5.406-5.002-5.406-8.296 0-14.517 12.477-16.182 21.202-3.74 4.592-11.223 10.408-17.467 10.408-4.978 0-6.65-4.573-7.072-6.245 15.796-5.406 35.327-27.012 35.327-46.543 0-4.145-1.666-13.298-14.125-13.298-18.698 0-34.47 27.851-34.47 49.433-6.667 0-9.146-7.053-9.146-12.46 0-5.411 2.075-10.793 2.075-12.465 0-1.665-.832-3.734-3.336-3.734-6.22 0-9.962 8.308-9.962 17.865.429 13.298 9.147 21.63 20.774 22.445 1.665 7.904 8.718 15.386 17.437 15.386 5.412 0 12.055-1.666 16.628-5.81a236.565 236.565 0 01-1.237 7.885c-18.293 9.576-31.591 16.219-43.64 27.019-9.533 8.736-14.94 20.363-14.94 29.491 0 12.484 7.887 24.11 24.087 24.11 19.102 0 33.66-15.367 40.732-36.569 3.312-9.961 4.641-24.471 5.492-37.788 19.09-10.818 28.151-17.05 38.13-24.128 1.243 2.075 2.499 3.735 4.146 4.977-8.719 4.574-29.492 17.462-29.492 47.786 0 21.606 14.528 45.717 43.218 45.717 23.682 0 39.882-19.537 39.882-38.241-.006-17.02-9.564-32.798-27.857-32.798m71.442 35.694c-.06.128-.293.3-.765.147-.367-.129-.447-.3-.447-.54.019-.232 5.02-15.024 4.978-31.97-.043-18.319-7.476-29.541-17.008-29.541-5.835 0-9.986 4.169-9.986 10.414 0 11.216 13.702 12.055 13.702 36.563 0 9.961-2.076 19.518-5.382 29.902-15.392 51.93-64.42 76.04-112.181 76.04-22.035 0-37.684-4.53-42.337-6.617-.19-.11-.367-.472-.214-.84.104-.275.428-.489.618-.403 1.886.728 15.324 4.959 31.953 4.959 18.276 0 29.088-7.476 29.088-16.629 0-5.81-4.574-10.383-10.384-10.383-11.222 0-12.073 14.124-36.165 14.124-10.384 0-19.53-2.075-30.325-5.412-51.538-15.784-76.071-64.384-76.053-112.58.019-23.485 6.606-42.19 6.71-42.36.086-.123.38-.258.741-.123.368.122.447.422.429.532-.594 1.947-4.96 15.35-4.96 31.978 0 18.294 7.476 29.088 17.033 29.088 5.388 0 9.962-4.145 9.962-9.962 0-11.234-13.72-12.477-13.72-36.581 0-10.39 2.093-19.537 5.405-30.33 15.796-51.527 64.42-75.674 112.206-76.048 22.206-.171 41.633 6.478 42.38 7.072.129.11.257.391.129.728-.178.404-.435.447-.558.423-.232-.019-12.869-5.302-31.996-5.302-17.865-.019-29.087 7.463-29.087 17.032 0 5.388 4.17 9.961 10.383 9.961 11.223 0 12.055-13.702 36.166-13.702 10.359 0 19.512 2.051 30.306 5.388 51.955 15.79 75.594 64.819 76.04 112.2.246 24.263-6.593 42.619-6.66 42.772M280.011 57.07c-78.948 0-142.934 63.968-142.934 142.935 0 78.95 63.986 142.917 142.934 142.917 78.931 0 142.917-63.968 142.917-142.917 0-78.539-63.986-142.935-142.917-142.935m0 292.93C197.322 350 130 283.105 130 200.011 130 117.298 197.323 50 280.012 50 362.678 50 430 117.298 430 200.012 430 283.106 362.678 350 280.012 350" fill="#3b73b9"/>
  </g>
</svg>