<svg version="1.1" xmlns="http://www.w3.org/2000/svg" xmlns:xlink="http://www.w3.org/1999/xlink" x="0px" y="0px" width="800px"
	 height="600px" viewBox="0 0 800 600" enable-background="new 0 0 800 600" xml:space="preserve">
<g display="none">
	<g display="inline">
		<g>
			<path d="M185.526,201.519c-19.224,0-36.526,15.379-36.526,34.603v146.103c0,19.226,15.379,34.604,36.526,34.604
				c19.224,0,36.525-15.379,36.525-34.604V236.122C222.051,216.898,204.75,201.519,185.526,201.519z M612.3,201.519
				c-19.224,0-36.524,15.379-36.524,34.603l0,0v146.103l0,0c0,19.226,15.379,34.604,36.524,34.604
				c21.146,0,36.525-15.379,36.525-34.604V236.122C648.825,216.898,633.446,201.519,612.3,201.519z M235.508,436.053
				c0,19.225,15.379,34.604,36.526,34.604h30.758v80.74c0,19.226,15.379,34.604,36.526,34.604c19.224,0,36.524-15.379,36.524-34.604
				v-80.74h49.982v80.74c0,19.226,15.38,34.604,36.525,34.604c19.225,0,36.525-15.379,36.525-34.604v-80.74h30.759
				c19.225,0,36.525-15.379,36.525-34.604V207.286H235.508V436.053z M562.317,195.751V178.45c0-3.845-1.923-9.612-1.923-13.457
				c-9.611-40.371-38.448-74.974-78.818-96.12l24.991-44.216c1.923-1.922,0-5.767-1.922-7.689c-1.924-1.922-5.769,0-7.69,1.922
				l-24.991,44.215c-21.146-9.612-46.138-13.457-71.129-13.457s-49.981,5.767-71.129,13.457L304.715,18.89
				c-1.922-1.922-5.767-3.845-7.689-1.922c-1.922,1.923-3.845,5.768-1.922,7.689l24.991,44.216
				c-38.448,19.224-67.284,51.905-76.896,90.353c-7.689,9.612-7.689,21.146-7.689,30.758c0,1.922,0,3.845,0,3.845h326.81v1.922
				H562.317z M473.887,109.243c7.689,0,15.379,5.768,15.379,15.379c0,9.611-7.688,15.379-15.379,15.379
				c-7.689,0-15.379-5.768-15.379-15.379C458.508,115.011,464.274,109.243,473.887,109.243z M323.939,109.243
				c7.688,0,15.379,5.768,15.379,15.379c0,9.611-7.69,15.379-15.379,15.379c-7.689,0-15.38-5.768-15.38-15.379
				C308.56,115.011,316.25,109.243,323.939,109.243z"/>
		</g>
	</g>
</g>
<g>
	<g>
		<path fill-rule="evenodd" clip-rule="evenodd" d="M116.639,15.3c188.818,0,377.646,0,566.46,0c0,189.002,0,377.995,0,567
			c-189.001,0-377.995,0-567,0c0-188.468,0-376.912,0-565.383C116.054,16.152,116.011,15.391,116.639,15.3z M543.506,272.39
			c-40.411,1.293-71.685,25.99-74.378,63.599c-4.514,63.006,42.687,77.286,83.541,95.398c13.007,5.766,26.729,11.824,30.721,23.715
			c7.225,21.52-11.639,33.557-28.565,35.033c-28.959,2.525-48.696-15.02-59.287-31.8c-13.979,8.657-29.196,16.077-42.579,25.332
			c18.688,32.797,49.176,54.034,97.016,53.897c48.736-0.141,84.885-23.643,87.853-67.911c4.124-61.505-42.816-77.934-83.541-95.398
			c-13.091-5.613-28.032-12.086-31.799-23.715c-4.056-12.521,1.983-24.715,11.318-29.104c20.197-9.498,42.004,6.112,46.891,19.942
			c14.544-7.913,27.23-17.685,41.501-25.871C607.75,287.96,582.998,271.126,543.506,272.39z M371.035,277.241
			c0,48.857,0,105.468,0,157.38c0,23.936,1.272,45.159-12.936,52.28c-21.854,10.954-43.98-6.8-49.585-24.254
			c-14.873,8.483-29.392,17.319-43.657,26.41c13.374,27.879,39.946,48.508,79.768,48.508c24.547-0.001,46.676-8.308,59.287-21.021
			c23.421-23.61,19.941-62.994,19.941-110.489c0-44.308,0-89.36,0-130.432c-17.427,0-34.853,0-52.28,0
			C370.945,275.715,370.988,276.476,371.035,277.241z"/>
		<g display="none">
			<path display="inline" fill-rule="evenodd" clip-rule="evenodd" d="M622.196,315.508c-14.271,8.187-26.957,17.958-41.501,25.871
				c-4.887-13.83-26.693-29.44-46.891-19.942c-9.335,4.39-15.374,16.583-11.318,29.104c3.767,11.629,18.708,18.102,31.799,23.715
				c40.725,17.465,87.665,33.894,83.541,95.398c-2.968,44.269-39.116,67.771-87.853,67.911
				c-47.84,0.137-78.327-21.101-97.016-53.897c13.383-9.255,28.6-16.675,42.579-25.332c10.591,16.78,30.328,34.325,59.287,31.8
				c16.927-1.477,35.79-13.514,28.565-35.033c-3.991-11.891-17.714-17.949-30.721-23.715
				c-40.854-18.112-88.055-32.393-83.541-95.398c2.693-37.609,33.967-62.306,74.378-63.599
				C582.998,271.126,607.75,287.96,622.196,315.508z"/>
			<path display="inline" fill-rule="evenodd" clip-rule="evenodd" d="M371.573,275.624c17.427,0,34.854,0,52.28,0
				c0,41.071,0,86.124,0,130.432c0,47.495,3.479,86.879-19.941,110.489c-12.611,12.713-34.74,21.02-59.287,21.021
				c-39.822,0-66.394-20.629-79.768-48.508c14.265-9.091,28.784-17.927,43.657-26.41c5.605,17.454,27.732,35.208,49.585,24.254
				c14.208-7.121,12.935-28.345,12.936-52.28c0-51.912,0-108.523,0-157.38C370.988,276.476,370.945,275.715,371.573,275.624z"/>
		</g>
	</g>
</g>
</svg>
