<svg width="166" height="29" role="img" xmlns="http://www.w3.org/2000/svg" viewBox="0 0 164.09 26.96" role="img">
    <path d="M32.63,16.91h2.25c2.14,0,2.73-.82,2.73-2.16s-.59-2.16-2.73-2.16H32.63ZM29.8,25.39V10.23h5.41c3.2,0,5.23,1.37,5.23,4.52s-2,4.51-5.23,4.51H32.63v6.13Z" transform="translate(-1 -1.25)" fill="#ef4e22" style="fill-rule:evenodd" />
    <path d="M45.71,16.87H47.8c2.21,0,2.89-.72,2.89-2.14s-.84-2.14-2.4-2.14H45.71Zm-2.83,8.52V10.23h5.9c3.36,0,4.72,2,4.74,4.5a3.74,3.74,0,0,1-2.71,3.9l3.26,6.76H50.93l-2.78-6.17H45.71v6.17Z" transform="translate(-1 -1.25)" fill="#ef4e22" style="fill-rule:evenodd" />
    <polygon points="69.63 24.15 69.63 8.99 73.61 8.99 76.46 19.57 76.5 19.57 79.37 8.99 83.39 8.99 83.39 24.15 80.93 24.15 80.93 12.22 80.89 12.22 77.57 24.15 75.41 24.15 72.13 12.22 72.09 12.22 72.09 24.15 69.63 24.15" fill="#ef4e22" style="fill-rule:evenodd" />
    <polygon points="87.02 24.15 87.02 8.99 96.82 8.99 96.82 11.42 89.85 11.42 89.85 15.03 94.92 15.03 94.92 17.47 89.85 17.47 89.85 21.71 97.05 21.71 97.05 24.15 87.02 24.15" fill="#ef4e22" style="fill-rule:evenodd" />
    <polygon points="109.5 8.97 109.5 11.4 105.62 11.4 105.62 24.15 102.79 24.15 102.79 11.4 98.92 11.4 98.92 8.97 109.5 8.97" fill="#ef4e22" style="fill-rule:evenodd" />
    <polygon points="111.94 24.15 111.94 8.99 114.77 8.99 114.77 15.03 120.47 15.03 120.47 8.99 123.3 8.99 123.3 24.15 120.47 24.15 120.47 17.64 114.77 17.64 114.77 24.15 111.94 24.15" fill="#ef4e22" style="fill-rule:evenodd" />
    <polygon points="126.95 24.15 126.95 8.99 136.75 8.99 136.75 11.42 129.78 11.42 129.78 15.03 134.85 15.03 134.85 17.47 129.78 17.47 129.78 21.71 136.98 21.71 136.98 24.15 126.95 24.15" fill="#ef4e22" style="fill-rule:evenodd" />
    <path d="M149,10.23h2.83v9.49c0,4.43-2.67,5.88-5.68,5.88s-5.68-1.45-5.68-5.88V10.23h2.83v9.62c0,2.46.94,3.32,2.85,3.32s2.85-.86,2.85-3.32Z" transform="translate(-1 -1.25)" fill="#ef4e22" style="fill-rule:evenodd" />
    <path d="M64.75,19.85c0,2.46-1,3.32-2.85,3.32s-2.85-.86-2.85-3.32V15.78c0-2.46.94-3.32,2.85-3.32s2.85.86,2.85,3.32ZM61.9,10c-3,0-5.68,1.45-5.68,5.88v3.82c0,4.44,2.66,5.88,5.68,5.88s5.68-1.44,5.68-5.88V15.9c0-4.43-2.67-5.88-5.68-5.88Z" transform="translate(-1 -1.25)" fill="#ef4e22" style="fill-rule:evenodd" />
    <path d="M162.22,14.27a2.73,2.73,0,0,0-2.65-2c-1.23,0-2.11.51-2.11,1.68,0,2.61,7.63,2.06,7.63,7,0,3.11-1.91,4.66-5.19,4.66A5.85,5.85,0,0,1,154.37,22L156.7,21c.68,1.43,1.56,2.38,3.22,2.38,1.42,0,2.5-.55,2.5-2,0-3-7.62-2.39-7.62-7,0-2.71,2.21-4.25,4.77-4.25a5.38,5.38,0,0,1,5.23,3.43Z" transform="translate(-1 -1.25)" fill="#ef4e22" style="fill-rule:evenodd" />
    <path d="M22.12,17.65a10.56,10.56,0,1,1-18-7.47c3.1-3.1,7.47-3.58,7.47-8.93C14,3.67,13,6.5,11.31,8.23,9.76,9.78,6.38,12,6.38,16.84c0,5.37,5.18,6.22,5.18,9.53,0,0,6-3.5,6-8.52,0-3.83-2.67-5-2.72-5a6.34,6.34,0,0,1,.56,2.68,4.86,4.86,0,0,1-1.23,2.9,6.64,6.64,0,0,1-1.71-4.28c0-2.47,1.33-4.52,1.78-6.68A10.54,10.54,0,0,1,22.12,17.65Z" transform="translate(-1 -1.25)" fill="#ef4e22" />
</svg>
