<svg version="1.1" xmlns="http://www.w3.org/2000/svg" xmlns:xlink="http://www.w3.org/1999/xlink" x="0px" y="0px"
	 width="800" height="600" viewBox="0 0 800 600" enable-background="new 0 0 800 600" xml:space="preserve" role="img">
<g fill="#cc0000">
	<path d="M693.2,403v36.2c0,0,46.8,0,65.399,0c13.4,0,36.4-9.8,37.2-37.2c0-1.2,0-13,0-14c0-23.4-19.2-37.2-37.2-37.2
		c-8.399,0-32.6,0-32.6,0V334h64.6v-36.4c0,0-44.399,0-62,0c-16,0-37.399,13.2-37.399,37.8c0,2.399,0,10.399,0,12.6
		c0,24.6,21.2,37.2,37.399,37.2c45,0.2-10.8,0,30.801,0c0,17.6,0,17.6,0,17.6"/>
	<path d="M342.8,394.2c0,0,35-3,35-48.2s-42.4-49.4-42.4-49.4H259v142.6h38.4v-34.4l33.2,34.4h56.8L342.8,394.2z M328,365h-30.6
		v-32.6h30.8c0,0,8.6,3.199,8.6,16.199S328,365,328,365z"/>
	<path d="M472.6,297.6c-9.8,0-11.199,0-39,0c-27.8,0-37.199,25.2-37.199,37.2c0,26,0,104.4,0,104.4h39v-25H472v25h37.8
		c0,0,0-77,0-104.4C509.8,304.4,482.2,297.6,472.6,297.6z M472,373.8h-36.8v-34.6c0,0,0-7.8,12.2-7.8c11.199,0,2,0,13.399,0
		c10.8,0,11,7.8,11,7.8v34.6H472z"/>
	<rect x="527.6" y="297.6" width="40.601" height="141.6"/>
	<polygon points="625.2,402.6 625.2,297.6 584.8,297.6 584.8,402.6 584.8,439.2 625.2,439.2 679.8,439.2 679.8,402.6 	"/>
	<path d="M18,439.2h158c0,0-30.2-137.8,69.8-193.6c21.8-10.6,91.2-50.2,204.8,33.8c3.601-3,7-5.4,7-5.4s-104-103.8-219.8-92.2
		C179.6,187,108,240,66,310S18,439.2,18,439.2z"/>
	<path d="M18,439.2h158c0,0-30.2-137.8,69.8-193.6c21.8-10.6,91.2-50.2,204.8,33.8c3.601-3,7-5.4,7-5.4s-104-103.8-219.8-92.2
		C179.6,187,108,240,66,310S18,439.2,18,439.2z"/>
	<path d="M18,439.2h158c0,0-30.2-137.8,69.8-193.6c21.8-10.6,91.2-50.2,204.8,33.8c3.601-3,7-5.4,7-5.4s-104-103.8-219.8-92.2
		c-58.4,5.2-130,58.2-172,128.2S18,439.2,18,439.2z"/>
	<path d="M347.2,193l0.8-13.4c-1.8-1-6.8-3.4-19.4-7l-0.8,13.2C334.4,188,340.8,190.4,347.2,193z"/>
	<path d="M328.2,235.4l-0.8,12.6c6.6,0.2,13.2,1,19.8,2.4L348,238C341.2,236.6,334.6,235.8,328.2,235.4z"/>
	<path d="M254.2,173c0.6,0,1.4,0,2,0l-4-12.2c-6.2,0-12.6,0.4-19.2,1.2l3.8,11.8C242.6,173.2,248.4,173,254.2,173z"/>
	<path d="M263.8,246.6l4.6,13.8c5.8-2.8,11.6-5.2,17.4-7l-4.4-13.2C274.6,242.2,268.8,244.4,263.8,246.6z"/>
	<path d="M173,194l-9-13.8c-5,2.6-10.2,5.4-15.6,8.6l9.2,14C162.8,199.6,167.8,196.6,173,194z"/>
	<path d="M214,284l9.6,14.4c3.4-5,7.4-9.6,11.8-14.2l-9-13.6C221.8,274.8,217.6,279.4,214,284z"/>
	<path d="M185,348.4l16.2,12.8c0.8-7.8,2.2-15.601,4.2-23.4L191,326.4C188.4,333.8,186.6,341.2,185,348.4z"/>
	<path d="M97.4,253.4L83.2,241c-5.2,5-10.2,10-14.8,15l15.4,13.2C88,263.8,92.6,258.4,97.4,253.4z"/>
	<path d="M37,342.8L14,334.4c-3.8,8.6-8,18.6-10,24l23,8.399C29.6,360,33.8,350.2,37,342.8z"/>
	<path d="M182,399.2c0.4,10.6,1.4,19.2,2.4,25.2l24,8.6c-1.8-7.8-3.6-16.6-4.8-26L182,399.2z"/>
</g>
</svg>
