<svg version="1.1" xmlns="http://www.w3.org/2000/svg" xmlns:xlink="http://www.w3.org/1999/xlink" x="0px" y="0px"
	 width="570" height="510" viewBox="0 0 570 510" enable-background="new 0 0 570 510" xml:space="preserve" role="img">
<path d="M334.695,254.628c0,27.706-22.461,50.167-50.167,50.167s-50.167-22.461-50.167-50.167s22.461-50.167,50.167-50.167
	S334.695,226.922,334.695,254.628z" fill="#61DAFB"/>
<path fill-opacity="0" stroke="#61DAFB" stroke-width="24" stroke-miterlimit="10" d="M284.529,152.628
	c67.356,0,129.928,9.665,177.107,25.907c56.845,19.569,91.794,49.233,91.794,76.093c0,27.991-37.041,59.503-98.083,79.729
	c-46.15,15.291-106.879,23.271-170.818,23.271c-65.554,0-127.63-7.492-174.29-23.44c-59.046-20.183-94.611-52.104-94.611-79.56
	c0-26.642,33.37-56.076,89.415-75.616C152.398,162.503,216.515,152.628,284.529,152.628z"/>
<path fill-opacity="0" stroke="#61DAFB" stroke-width="24" stroke-miterlimit="10" d="M195.736,203.922
	c33.649-58.348,73.281-107.724,110.92-140.48c45.35-39.466,88.507-54.923,111.774-41.505
	c24.248,13.983,33.042,61.814,20.067,124.796c-9.811,47.618-33.234,104.212-65.176,159.601
	c-32.749,56.788-70.25,106.819-107.377,139.272c-46.981,41.067-92.4,55.929-116.185,42.213
	c-23.079-13.311-31.906-56.921-20.834-115.233C138.281,323.316,161.758,262.841,195.736,203.922z"/>
<path fill-opacity="0" stroke="#61DAFB" stroke-width="24" stroke-miterlimit="10" d="M195.821,306.482
	c-33.746-58.292-56.731-117.288-66.312-166.255c-11.544-58.999-3.382-104.109,19.864-117.566
	c24.224-14.024,70.055,2.244,118.14,44.94c36.356,32.28,73.688,80.837,105.723,136.173c32.844,56.733,57.461,114.209,67.036,162.583
	c12.116,61.213,2.309,107.983-21.453,121.739c-23.058,13.349-65.249-0.783-110.239-39.499
	C270.567,415.886,229.898,365.344,195.821,306.482z"/>
</svg>
