<svg xmlns="http://www.w3.org/2000/svg" width="100" height="14" viewBox="0 0 26.458 3.704">
  <path d="M7.948.104c-.39 0-.692.142-.923.372-.337.337-.337.763-.337 1.366 0 .585-.017 1.011.337 1.366.249.248.533.372.923.372.106 0 .195-.018.283-.035h1.153l-.337-.586c.16-.301.16-.656.16-1.117 0-.585 0-1.01-.337-1.366-.231-.248-.532-.372-.922-.372Zm6.988 0c-.39 0-.692.124-.923.372-.354.355-.337.78-.337 1.366 0 .603 0 1.029.337 1.366.23.23.532.372.923.372.39 0 .69-.124.921-.372.337-.355.338-.78.338-1.366 0-.603 0-1.029-.338-1.366a1.283 1.283 0 0 0-.921-.372ZM1.386.122C.64.122.196.547.196 1.15c0 .284.089.515.249.675.141.141.372.248.656.283l.408.053c.16.036.23.054.301.125.071.07.107.16.107.283 0 .284-.213.426-.603.426-.302 0-.603-.071-.816-.284l-.426.426c.337.337.727.443 1.242.443.71 0 1.277-.372 1.277-1.029 0-.301-.09-.55-.267-.726-.141-.142-.336-.231-.656-.267l-.408-.053c-.141-.035-.248-.07-.319-.142a.35.35 0 0 1-.106-.248c0-.23.177-.426.532-.426.213 0 .479.018.691.23l.426-.407c-.284-.284-.639-.39-1.1-.39ZM3.548.14v3.405h2.253v-.586H4.223v-.833h1.348v-.603H4.223V.725h1.579V.14Zm6.65 0v2.234c0 .727.569 1.206 1.26 1.206.692 0 1.241-.479 1.241-1.206V.14h-.656v2.216c0 .39-.23.621-.585.621-.354 0-.585-.23-.585-.62V.14Zm6.971 0v3.405h.656V.14Zm2.731 0L18.66 3.545h.692l.213-.603h1.206l.195.603h.692L20.416.14ZM7.93.707c.177 0 .337.07.426.177.124.142.159.302.159.958 0 .656-.035.816-.16.958a.558.558 0 0 1-.425.177.558.558 0 0 1-.426-.177c-.124-.142-.16-.302-.16-.958 0-.656.036-.816.16-.958A.558.558 0 0 1 7.93.707zm7.006 0c.177 0 .336.07.425.177.124.142.16.302.16.958 0 .656-.036.816-.16.958a.557.557 0 0 1-.425.177.558.558 0 0 1-.426-.177c-.124-.142-.16-.302-.16-.958 0-.656.036-.816.16-.958a.558.558 0 0 1 .426-.177zm5.231.426.426 1.241h-.852z" fill="#ffffff"/>
  <path d="M23.005.14v3.103l.426-.426V.14Zm.851 0v2.252l.426-.426V.14Zm.852 0v1.4l.425-.425V.14Zm.85 0v.85h.852V.14Zm-.123 1.277-.426.425h1.4v-.425Zm-.852.85-.425.427h2.252v-.426Zm-.85.852-.427.426h3.104v-.426z" fill="#50b848"/>
</svg>