<svg xmlns="http://www.w3.org/2000/svg" width="452" height="88" viewBox="-6.918 -3.319 452 88" overflow="visible" role="img"><path fill="#727275" d="M413.008 80.254h-10.989v-.171c.285-.045.567-.12.848-.222a1.58 1.58 0 0 0 .658-.428c.058-.068.105-.168.146-.299s.071-.283.095-.454c.022-.171.043-.351.06-.539.018-.188.025-.374.025-.557 0-.16.003-.376.009-.65l.018-.898c.005-.325.008-.659.008-1.001v-4.914c0-.206-.008-.396-.025-.573a3.262 3.262 0 0 0-.077-.471.781.781 0 0 0-.153-.325 1.504 1.504 0 0 0-.643-.445 3.498 3.498 0 0 0-.847-.206v-.171h5.46v.171a9.001 9.001 0 0 0-.53.103c-.206.045-.4.12-.582.223-.183.103-.34.248-.471.436-.132.188-.203.437-.214.745-.012.4-.021.765-.026 1.096l-.017.976c-.006.32-.009.65-.009.993v3.116c0 .297.003.602.009.916s.009.665.009 1.053c.011.365.025.713.042 1.044.018.331.077.577.18.736.046.057.138.114.274.171.137.057.302.106.496.146.194.04.405.074.634.103.228.028.456.042.685.042a15.408 15.408 0 0 0 1.831-.119c.251-.034.474-.08.668-.137.456-.125.836-.291 1.138-.496.303-.206.562-.442.779-.71s.399-.559.548-.873c.148-.313.291-.642.428-.984l.171.052-.636 3.521zm14.002 0h-10.989v-.171c.285-.045.567-.12.848-.222a1.58 1.58 0 0 0 .658-.428c.058-.068.105-.168.146-.299s.071-.283.095-.454c.022-.171.043-.351.06-.539.018-.188.025-.374.025-.557 0-.16.003-.376.009-.65l.018-.898c.005-.325.008-.659.008-1.001v-4.914c0-.206-.008-.396-.025-.573a3.262 3.262 0 0 0-.077-.471.781.781 0 0 0-.153-.325 1.504 1.504 0 0 0-.643-.445 3.498 3.498 0 0 0-.847-.206v-.171h5.46v.171a9.001 9.001 0 0 0-.53.103c-.206.045-.4.12-.582.223-.183.103-.34.248-.471.436-.132.188-.203.437-.214.745-.012.4-.021.765-.026 1.096l-.017.976c-.006.32-.009.65-.009.993v3.116c0 .297.003.602.009.916s.009.665.009 1.053c.011.365.025.713.042 1.044.018.331.077.577.18.736.046.057.138.114.274.171.137.057.302.106.496.146.194.04.405.074.634.103.228.028.456.042.685.042a15.408 15.408 0 0 0 1.831-.119c.251-.034.474-.08.668-.137.456-.125.836-.291 1.138-.496.303-.206.562-.442.779-.71s.399-.559.548-.873c.148-.313.291-.642.428-.984l.171.052-.636 3.521zm13.094-7.617a3.253 3.253 0 0 1-.539.907 3.408 3.408 0 0 1-.778.676c-.297.188-.6.34-.907.454-.32.114-.662.2-1.027.257a13.963 13.963 0 0 1-2.191.17h-.925v1.608c0 .194.003.374.009.54s.009.345.009.539c.011.365.022.679.034.941.011.263.073.479.188.65.092.148.269.297.531.445.262.148.627.234 1.096.256v.171h-5.478v-.171c.285-.045.559-.114.821-.205s.468-.228.616-.411a.77.77 0 0 0 .137-.308 3.13 3.13 0 0 0 .077-.462c.018-.171.031-.354.043-.548.011-.194.017-.382.017-.565 0-.16.003-.376.009-.65l.018-.898c.005-.325.008-.659.008-1.001v-4.331c0-.206-.003-.414-.008-.625a10.624 10.624 0 0 0-.034-.599 3.3 3.3 0 0 0-.086-.513c-.04-.154-.094-.266-.162-.334a1.292 1.292 0 0 0-.659-.368 10.845 10.845 0 0 0-.864-.163v-.169h.41c.217 0 .471-.003.762-.009.291-.005.607-.008.95-.008s.682-.003 1.019-.009c.336-.005.653-.008.95-.008h.77c.754 0 1.421.037 2.003.111s1.13.254 1.644.539c.502.274.918.662 1.249 1.164s.497 1.095.497 1.78a3.12 3.12 0 0 1-.209 1.147zm-2.148-2.995a3.237 3.237 0 0 0-1.327-1.164 3.228 3.228 0 0 0-.873-.257 6.617 6.617 0 0 0-1.515-.043l-.316.043c-.012.068-.025.128-.043.18s-.031.117-.043.197c-.012.08-.022.191-.034.334s-.022.345-.034.607c-.012.399-.02.885-.025 1.455-.006.571-.009 1.13-.009 1.677v2.191c.468 0 .907-.014 1.318-.042.41-.028.793-.105 1.146-.231.73-.251 1.289-.665 1.678-1.241a3.4 3.4 0 0 0 .582-1.943c0-.662-.169-1.25-.505-1.763z"></path><path d="M1.776 51.629V36.011h1.791c2.03 10.197 6.842 15.295 14.436 15.295 3.415 0 6.059-.975 7.934-2.925 1.875-1.95 2.812-4.134 2.812-6.551 0-2.44-.824-4.486-2.472-6.137-1.648-1.627-4.657-3.372-9.026-5.234-3.893-1.671-6.83-3.134-8.812-4.388-1.983-1.253-3.529-2.883-4.639-4.889s-1.666-4.143-1.666-6.412c0-3.462 1.2-6.346 3.6-8.65 2.4-2.304 5.438-3.457 9.116-3.457 2.054 0 3.988.335 5.803 1.003 1.814.669 3.677 2.054 5.588 4.155 1.098-1.313 1.719-2.734 1.862-4.263h1.576v12.716h-1.576c-.908-3.69-2.513-6.595-4.817-8.714-2.305-2.119-4.974-3.179-8.006-3.179-2.89 0-5.009.782-6.358 2.345-1.35 1.563-2.024 3.276-2.024 5.137 0 2.244.845 4.141 2.536 5.692 1.667 1.575 4.688 3.337 9.062 5.286 4.183 1.854 7.225 3.348 9.123 4.482 1.898 1.134 3.421 2.704 4.567 4.71 1.146 2.006 1.72 4.322 1.72 6.949 0 4.155-1.385 7.535-4.155 10.137-2.771 2.603-6.472 3.904-11.104 3.904-5.326 0-9.767-2.042-13.325-6.125-.788 1.123-1.374 2.699-1.755 4.728H1.776zm32.203-26.554h-1.208l.184-8.563H67.55l.184 8.563h-1.13c-.403-2.347-.955-4.041-1.655-5.083-.701-1.042-1.454-1.681-2.259-1.917-.806-.236-2.18-.355-4.124-.355h-5.727v25.139c0 2.784.065 4.614.197 5.49.131.876.486 1.523 1.064 1.944.578.42 1.664.63 3.257.63h1.734v1.208H41.308v-1.208h1.839c1.523 0 2.579-.192 3.166-.578.586-.385.963-.985 1.129-1.799.166-.814.25-2.71.25-5.687v-25.14h-5.28c-2.294 0-3.835.11-4.623.329-.788.219-1.528.88-2.22 1.983-.693 1.103-1.222 2.784-1.59 5.044zm74.087 27.055h-9.588c-1.699-1.19-4.299-4.308-7.801-9.352a75.761 75.761 0 0 0-3.494-4.636c-1.208-1.479-2.041-2.381-2.496-2.706-.456-.324-1.165-.486-2.127-.486h-1.418v7.907c0 2.802.065 4.636.197 5.503s.481 1.51 1.051 1.931c.569.42 1.659.63 3.271.63h1.707v1.208H70.319v-1.208h1.156c1.524 0 2.579-.192 3.166-.578.586-.385.959-.985 1.116-1.799.158-.814.236-2.71.236-5.687V25.39c0-2.837-.079-4.667-.236-5.49-.157-.823-.508-1.393-1.051-1.708-.543-.315-1.716-.473-3.52-.473h-.604v-1.208l5.096-.263c3.397-.158 6.094-.236 8.09-.236 3.397 0 6.16.315 8.288.945 2.128.63 3.848 1.664 5.162 3.1 1.313 1.437 1.97 3.152 1.97 5.149 0 2.329-.858 4.317-2.574 5.962-1.716 1.646-4.238 2.671-7.565 3.074 1.49.717 3.89 3.309 7.198 7.775 2.696 3.625 4.815 5.998 6.356 7.119 1.541 1.121 3.362 1.716 5.464 1.786v1.208zM81.142 33.743c1.313-.035 2.67-.087 4.071-.157 1.401-.07 2.618-.263 3.651-.578 1.033-.315 1.869-.775 2.508-1.379s1.143-1.396 1.511-2.377c.368-.98.551-2.189.551-3.625 0-2.504-.626-4.509-1.878-6.015-1.252-1.506-3.979-2.259-8.183-2.259-.648 0-1.392.036-2.232.105v16.285z"></path><path d="M107.734 17.719v-1.208h16.287v1.208h-.764c-1.75 0-2.898.145-3.439.434-.543.289-.906.828-1.09 1.616-.186.788-.277 2.662-.277 5.621v17.468c0 2.802.066 4.636.197 5.503s.482 1.51 1.051 1.931 1.66.63 3.271.63h1.051v1.208h-16.287v-1.208h1.051c1.523 0 2.579-.192 3.166-.578.586-.385.958-.985 1.116-1.799.158-.814.236-2.71.236-5.687V25.39c0-2.837-.079-4.667-.236-5.49s-.508-1.393-1.051-1.708c-.543-.315-1.716-.473-3.52-.473h-.762zm18.922 34.044V40.31h1.313c1.488 7.478 5.017 11.216 10.586 11.216 2.504 0 4.443-.715 5.818-2.145 1.374-1.43 2.062-3.032 2.062-4.804 0-1.79-.604-3.29-1.812-4.5-1.208-1.193-3.414-2.473-6.619-3.839-2.854-1.226-5.009-2.298-6.462-3.218a9.807 9.807 0 0 1-3.401-3.585 9.563 9.563 0 0 1-1.222-4.702c0-2.539.88-4.653 2.64-6.344 1.76-1.689 3.988-2.535 6.686-2.535 1.506 0 2.924.246 4.255.735 1.331.491 2.697 1.506 4.099 3.047.805-.963 1.261-2.005 1.365-3.126h1.156v9.325h-1.156c-.665-2.706-1.843-4.836-3.533-6.39-1.689-1.554-3.646-2.331-5.87-2.331-2.119 0-3.674.573-4.663 1.72s-1.484 2.402-1.484 3.768c0 1.646.62 3.037 1.86 4.174 1.223 1.156 3.438 2.448 6.646 3.877 3.068 1.359 5.299 2.455 6.69 3.287 1.393.832 2.509 1.983 3.35 3.454.84 1.471 1.261 3.17 1.261 5.096 0 3.047-1.016 5.525-3.047 7.434-2.032 1.909-4.746 2.863-8.144 2.863-3.905 0-7.162-1.497-9.771-4.492-.578.823-1.007 1.979-1.287 3.467h-1.316z"></path><path fill="#939598" d="M209.693 20.047c-1.994 1.258-3.882 2.802-5.662 4.629a70.987 70.987 0 0 0-5.234 6.054 149.653 149.653 0 0 1-5.412 6.587c.664.854 1.424 1.84 2.279 2.956.854 1.116 1.923 2.339 3.204 3.667 1.234 1.282 2.48 2.327 3.739 3.134 1.257.808 2.812 1.21 4.664 1.21.949 0 1.84-.189 2.671-.57.83-.379 1.603-.854 2.314-1.424s1.354-1.186 1.923-1.852c.57-.664 1.021-1.282 1.354-1.852l.641.285c-.333.951-.938 2.03-1.815 3.241a19.331 19.331 0 0 1-3.17 3.383 16.513 16.513 0 0 1-4.166 2.563 12.026 12.026 0 0 1-4.807.997c-1.567 0-3.016-.274-4.345-.819a14.677 14.677 0 0 1-3.738-2.244 23.125 23.125 0 0 1-3.24-3.24 36.25 36.25 0 0 1-2.707-3.739c-.617.902-1.472 1.923-2.563 3.062a24.55 24.55 0 0 1-3.81 3.205 21.359 21.359 0 0 1-4.808 2.457 16.077 16.077 0 0 1-5.555.961c-2.185 0-4.155-.321-5.911-.961-1.757-.641-3.229-1.542-4.415-2.707-1.188-1.163-2.102-2.528-2.742-4.095s-.961-3.205-.961-4.914c0-1.994.415-3.833 1.246-5.519a17.116 17.116 0 0 1 3.275-4.558 27.142 27.142 0 0 1 4.522-3.632 52.84 52.84 0 0 1 4.914-2.813 121.568 121.568 0 0 0-2.92-2.956 19.21 19.21 0 0 1-2.351-2.742 12.954 12.954 0 0 1-1.602-3.134c-.404-1.139-.605-2.493-.605-4.059 0-1.567.367-3.002 1.104-4.309a11.359 11.359 0 0 1 2.849-3.347A13.706 13.706 0 0 1 171.77.78a12.902 12.902 0 0 1 4.38-.78c1.282 0 2.539.19 3.774.57 1.234.38 2.338.938 3.312 1.673.973.737 1.769 1.674 2.386 2.813.616 1.14.926 2.469.926 3.988 0 1.52-.333 2.896-.997 4.13a15.071 15.071 0 0 1-2.314 3.241c-.879.926-1.77 1.698-2.671 2.314a44.964 44.964 0 0 1-2.065 1.353 40.212 40.212 0 0 1 4.06 3.596 115.622 115.622 0 0 1 3.632 3.881 59.311 59.311 0 0 1 3.668 4.629 73.373 73.373 0 0 1 2.885 4.344 93.757 93.757 0 0 0 3.098-4.131 60.233 60.233 0 0 0 2.563-3.917c.735-1.234 1.317-2.361 1.745-3.383.427-1.02.641-1.839.641-2.457 0-1.044-.273-1.852-.818-2.421-.547-.57-1.271-.997-2.173-1.282-.902-.285-1.899-.463-2.991-.534-1.092-.071-2.184-.13-3.275-.178v-.854l24.854-.57v.854c-2.472.335-4.702 1.131-6.697 2.388zm-23.786 19.3a64.348 64.348 0 0 0-3.668-4.842c-.688-.83-1.46-1.768-2.314-2.813a36.33 36.33 0 0 0-1.745-1.923 59.785 59.785 0 0 0-2.136-2.101 145.42 145.42 0 0 0-2.137-1.958 482.113 482.113 0 0 1-1.745-1.567 27.902 27.902 0 0 0-2.492 2.351 21.102 21.102 0 0 0-2.351 2.991 16.333 16.333 0 0 0-1.745 3.597c-.451 1.306-.676 2.67-.676 4.095s.236 2.777.712 4.06a10.047 10.047 0 0 0 2.065 3.383 9.613 9.613 0 0 0 3.204 2.279c1.234.546 2.588.819 4.06.819s2.777-.118 3.917-.356a14.515 14.515 0 0 0 3.169-1.033 15.125 15.125 0 0 0 2.813-1.709 44.547 44.547 0 0 0 2.849-2.386 39.36 39.36 0 0 0-1.78-2.887zm-5.021-32.118c-.309-1.068-.747-2.018-1.317-2.849a7.326 7.326 0 0 0-2.064-2.03 4.767 4.767 0 0 0-2.636-.783c-.854 0-1.591.19-2.207.569a4.79 4.79 0 0 0-1.496 1.424 6.527 6.527 0 0 0-.854 1.852 6.768 6.768 0 0 0-.285 1.852c0 1.52.143 2.706.428 3.561s.783 1.781 1.495 2.777a17.645 17.645 0 0 0 2.6 2.956c.926.832 2.029 1.816 3.312 2.956 1.234-1.282 2.124-2.61 2.671-3.988.545-1.376.819-3.062.819-5.056a11.72 11.72 0 0 0-.466-3.241z"></path><path d="M253.212 43.749l17.729-40.19h14.921v1.648h-1.791c-2.388 0-3.952.197-4.692.591S278.143 6.926 277.892 8c-.251 1.074-.376 3.63-.376 7.665v23.82c0 3.821.095 6.322.286 7.504s.675 2.06 1.451 2.633c.775.573 2.262.859 4.46.859h2.148v1.648h-23.247v-1.648h1.72c2.054 0 3.48-.262 4.28-.788s1.313-1.343 1.54-2.454c.227-1.11.341-3.695.341-7.755V8.573L251.238 52.13h-1.712L230.162 8.573V37.02c0 3.893.119 6.544.357 7.954.239 1.409.979 2.644 2.222 3.704 1.241 1.061 2.984 1.662 5.229 1.805v1.648h-17.373v-1.648c2.078-.119 3.767-.684 5.068-1.697 1.302-1.013 2.096-2.259 2.383-3.74.286-1.481.43-4.228.43-8.24V15.667c0-3.869-.114-6.365-.341-7.487-.227-1.123-.704-1.899-1.433-2.329s-2.322-.645-4.782-.645h-1.325V3.559h14.824l17.791 40.19z"></path><path d="M307.507 38.997h-13.544l-.935 2.259c-1.366 3.275-2.049 5.411-2.049 6.41 0 1.068.363 1.878 1.09 2.43.727.551 1.659.827 2.798.827v1.208h-10.586v-1.208c1.576-.245 2.749-.8 3.52-1.666.771-.865 1.698-2.688 2.784-5.468.106-.262.531-1.28 1.273-3.053l10.351-24.723h1.012l11.925 28.29 1.632 3.73c.365.841.856 1.502 1.474 1.984.617.482 1.544.784 2.779.906v1.208h-13.975v-1.208c1.716 0 2.876-.126 3.48-.381.604-.253.906-.757.906-1.51 0-.385-.403-1.532-1.209-3.441l-2.726-6.594zm-.489-1.183l-6.279-15.183-6.286 15.183h12.565zm43.442-3.546h-18.571v8.59c0 2.802.07 4.636.211 5.503.14.867.494 1.51 1.063 1.931.568.42 1.65.63 3.244.63h.919v1.208h-16.05v-1.208h.92c1.523 0 2.578-.192 3.165-.578s.963-.985 1.13-1.799c.166-.814.249-2.71.249-5.687V25.39c0-2.837-.083-4.667-.249-5.49-.167-.823-.517-1.393-1.051-1.708-.534-.315-1.703-.473-3.507-.473h-.657v-1.208h16.05v1.208h-.656c-1.733 0-2.872.145-3.415.434s-.906.828-1.09 1.616-.276 2.662-.276 5.621v7.066h18.571V25.39c0-2.837-.078-4.667-.236-5.49-.157-.823-.503-1.393-1.037-1.708-.534-.315-1.703-.473-3.507-.473h-.945v-1.208h16.207v1.208h-.525c-1.751 0-2.898.145-3.441.434s-.906.828-1.09 1.616-.275 2.662-.275 5.621v17.468c0 2.802.065 4.636.196 5.503.132.867.486 1.51 1.064 1.931.577.42 1.663.63 3.257.63h.814v1.208h-16.207v-1.208h1.234c1.506 0 2.552-.192 3.139-.578s.959-.985 1.116-1.799c.158-.814.236-2.71.236-5.687v-8.59zm43.001 6.777h1.261l-.774 11.085h-29.486v-1.208h.736c1.769 0 2.911-.236 3.428-.709.516-.473.845-1.073.984-1.799.141-.727.211-2.579.211-5.556V25.39c0-2.714-.075-4.5-.224-5.358-.149-.858-.49-1.458-1.024-1.799-.534-.342-1.659-.513-3.375-.513v-1.208h25.479l.814 8.878h-1.209c-.561-2.486-1.247-4.251-2.062-5.293-.814-1.042-1.782-1.698-2.902-1.97-1.121-.271-2.925-.407-5.411-.407h-4.938v14.947h3.793c1.739 0 2.955-.149 3.648-.447.694-.297 1.15-.749 1.37-1.353.22-.604.329-1.782.329-3.533h1.209v12.188h-1.209c0-1.979-.167-3.305-.5-3.98-.334-.674-.821-1.112-1.462-1.313-.642-.201-1.726-.302-3.254-.302h-3.925v8.432c0 4.22.271 6.703.812 7.447.542.745 2.002 1.116 4.381 1.116h2.649c1.871 0 3.41-.238 4.616-.716 1.207-.477 2.356-1.464 3.449-2.961 1.095-1.498 1.956-3.564 2.586-6.2zM435.49 52.13h-9.588c-1.699-1.19-4.3-4.308-7.802-9.352a75.356 75.356 0 0 0-3.494-4.636c-1.208-1.479-2.04-2.381-2.495-2.706-.455-.324-1.165-.486-2.128-.486h-1.418v7.907c0 2.802.065 4.636.197 5.503.131.867.481 1.51 1.05 1.931.569.42 1.659.63 3.271.63h1.708v1.208h-17.048v-1.208h1.155c1.523 0 2.578-.192 3.165-.578s.959-.985 1.117-1.799c.157-.814.236-2.71.236-5.687V25.39c0-2.837-.079-4.667-.236-5.49-.158-.823-.509-1.393-1.051-1.708-.543-.315-1.717-.473-3.521-.473h-.604v-1.208l5.096-.263c3.397-.158 6.094-.236 8.091-.236 3.396 0 6.159.315 8.287.945s3.849 1.664 5.162 3.1c1.312 1.437 1.97 3.152 1.97 5.149 0 2.329-.858 4.317-2.574 5.962-1.717 1.646-4.238 2.671-7.565 3.074 1.49.717 3.89 3.309 7.198 7.775 2.696 3.625 4.815 5.998 6.356 7.119 1.54 1.121 3.362 1.716 5.464 1.786v1.208zm-26.925-18.387c1.313-.035 2.67-.087 4.071-.157 1.4-.07 2.618-.263 3.651-.578 1.033-.315 1.869-.775 2.509-1.379.639-.604 1.143-1.396 1.51-2.377.368-.98.552-2.189.552-3.625 0-2.504-.626-4.509-1.878-6.015-1.252-1.506-3.979-2.259-8.183-2.259-.647 0-1.392.036-2.232.105v16.285z"></path><path fill="none" stroke="#808285" stroke-width=".5" stroke-miterlimit="10" d="M0 60.696h439.344"></path></svg>