<svg data-bbox="1 1 228.01 43.26" viewBox="0 0 230 46" xmlns="http://www.w3.org/2000/svg" role="img"><g fill="#f58220"><path d="M4.86 21.27V12.8h2.48v8.47H12v2.23H7.34v16.35c0 1.38.3 1.88 2.23 1.68h2.73v2.23H9.12c-3.31 0-4.26-.25-4.26-4.26v-16H1v-2.23zm16.41 4.31h.09a11.25 11.25 0 018.77-4.81c7.09 0 7.93 3.77 7.93 9v11.76H42v2.23H31.67v-2.23h3.91v-12c0-5-1.58-6.54-5.45-6.54a10.5 10.5 0 00-8.86 5.5v13h3.81v2.23h-10.3v-2.19h4V10.22h-4V8h6.49zm24.1 7.92c.4 5.31 4.56 8.53 9.71 8.53a10.45 10.45 0 008.57-4.56h2.78c-2 4.46-6.89 6.79-11.65 6.79-6.48 0-11.88-4.76-11.88-11.4 0-7 5.49-12.09 12.43-12.09 7.43 0 12.09 5.35 12.09 12.73zm19.57-2.22c-.54-5-5-8.28-10-8.28a9.77 9.77 0 00-9.61 8.28z" stroke="#f58220" stroke-miterlimit="10" stroke-width=".5"/><path d="M131.78 1v2.85h-5.28V41h5.28v2.8h-13.69V41h5.21V7.16h-.11L108 42h-2L90.82 7.16h-.12V41h4.92v2.8H82.29V41h5.21V3.85h-5.21V1h9l15.64 36.57h.12L122.77 1zm3 42.8V41H140V3.85h-5.28V1h31.83v10.49h-3.2V3.85h-20.12v15.76h15.53v2.85h-15.53V41h20.15v-7.34h3.2V43.8zm35.23 0V41h5V3.85h-5V1h13.28v2.85h-5V41h18.31v-6.1h3.21v8.9zm59-31.42h-3.2V3.85h-11.09V41h5.33v2.8h-13.87V41h5.33V3.85h-11.08v8.53h-3.2V1H229z"/></g></svg>