<svg class="icon-chat-bubble-reply" version="1.0" xmlns="http://www.w3.org/2000/svg" width="247" height="132" viewBox="0 0 247 132">
  <path d="M80 3.9c-22.8 6.3-41.1 23.9-46.5 44.8-1 4-1.5 10.8-1.5 22.4 0 17.9-1.1 23.2-6.5 32.5-3.6 6.2-12.6 14.6-18.6 17.4l-5.2 2.5 3.9.7c5.8 1 15.9.9 25.4-.3 8-.9 14.8-3.4 21.1-7.5 2.5-1.6 2.7-1.6 11.7 3.9 15.4 9.2 15.1 9.2 75.2 9.2 46.9 0 52.1-.2 58-1.8 27.2-7.7 46-30.3 47.7-57.3 1.9-29.8-14.9-54.9-43.7-65.5l-6.5-2.4-54-.2C91.3 2.1 85.9 2.2 80 3.9zm21.4 49.5c7.3 3 10.1 10.5 6.7 18-4.6 10.5-19.3 10.8-24.6.6-3.3-6.3-.9-14.2 5.3-17.8 4.3-2.5 8-2.7 12.6-.8zm44.2.2c4.6 2.2 7.4 7 7.4 12.7 0 3.7-.6 5.3-3.1 8.2-4.4 4.9-9.5 6.3-15.3 4.1C129 76.5 126 72 126 66c0-10.5 10.1-16.9 19.6-12.4zm44 1.1c3.1 2 5.6 6.7 5.7 10.8.2 7.9-5.5 13.9-13.4 13.9-14.7 0-19-18.9-5.9-25.7 4-2.1 9.6-1.7 13.6 1z" fill="#e5e5ea" />
</svg>