<svg class="icon-chat-bubble icon-chat-bubble-right" version="1.0" xmlns="http://www.w3.org/2000/svg" width="247" height="247" viewBox="0 0 247 247">
  <path d="M52.5 60.1c-11.1 2.6-21.3 8-29.7 15.8C7.9 89.6 1 107 2.3 127.4 4 154.4 22.8 177 50 184.7c5.9 1.6 11.1 1.8 58 1.8 60.1 0 59.8 0 75.2-9.2 9-5.5 9.2-5.5 11.7-3.9 6.3 4.1 13.1 6.6 21.1 7.5 9.5 1.2 19.6 1.3 25.4.3l3.9-.7-5.2-2.5c-6-2.8-15-11.2-18.6-17.4-5.4-9.3-6.5-14.6-6.5-32.5 0-11.6-.5-18.4-1.5-22.4-5.5-21.1-24-38.8-46.9-44.9-6.4-1.6-11.5-1.8-58.5-1.7-28.4.1-53.4.5-55.6 1zm20.2 51.4c9.8 6.5 7.5 21.3-3.8 24.5-10.1 2.9-19.5-6.5-16.7-16.7 1.1-4.1 5.7-8.9 9.1-9.6 3.5-.8 8.7.1 11.4 1.8zm40.9-.9c10.5 5 9.7 20.8-1.2 25-5.8 2.2-10.9.8-15.3-4.1-2.5-2.9-3.1-4.5-3.1-8.2 0-10.8 10-17.2 19.6-12.7zm44.5.6c15 8.4 3.2 30.9-12.6 23.9-10.7-4.7-10.8-20-.1-24.7 4.5-1.9 8.3-1.7 12.7.8z" class="morph-from" fill="#1f97f6" />
  <path d="M38 45.5c0 34.2.1 35.6 2 37.5 2.9 2.9 5.2 2.5 10.5-1.9 7.7-6.3 16.2-7.8 24.5-4 6 2.7 8.8 5.4 11.6 11.4 5.5 11.6.7 24.6-11 30.1-8.9 4.1-18.2 2.5-26.3-4.6-3.9-3.5-6.5-3.8-9.3-1-1.9 1.9-2 3.3-2 37v35h35.5c34.2 0 35.6.1 37.5 2 2.8 2.8 2.5 5.4-1 9.3-7.1 8.1-8.7 17.4-4.6 26.3 5.5 11.7 18.5 16.5 30.1 11 6-2.8 8.7-5.6 11.4-11.6 3.8-8.3 2.3-16.8-4-24.5-4.4-5.3-4.8-7.6-1.9-10.5 1.9-1.9 3.3-2 37-2h35V10H38v35.5z" class="morph-to" fill="#1dbb47" />
</svg>